<svg width="211" height="60" viewBox="0 0 211 60" fill="none" xmlns="http://www.w3.org/2000/svg">
<path d="M75.7793 54.8785H74.6484V59.8574H77.9267V58.8761H75.7793V54.8785Z" fill="#464747"/>
<path d="M80.3828 57.9869L81.1773 56.0522L81.9646 57.9869H80.3828ZM80.6261 54.8785L78.4502 59.8574H79.617L80.0105 58.8901H82.3297L82.7232 59.8574H83.9331L81.7928 54.8785H80.6261Z" fill="#464747"/>
<path d="M88.3147 58.0794L85.8812 54.8785H84.8506V59.8574H85.9312V56.6636L88.3578 59.8574H89.3884V54.8785H88.3147V58.0794Z" fill="#464747"/>
<path d="M93.0498 59.0045H92.0264V55.9185H92.9998C93.8587 55.9185 94.503 56.5512 94.503 57.4683C94.503 58.3787 93.8874 59.0045 93.0498 59.0045ZM93.0214 54.9725H90.8955V59.9502H92.9783C94.5601 59.9502 95.6554 58.9263 95.6554 57.4615C95.6554 55.9893 94.5745 54.9725 93.0214 54.9725Z" fill="#464747"/>
<path d="M101.684 59.0189C100.847 59.0189 100.138 58.3363 100.138 57.4614C100.138 56.5864 100.84 55.9184 101.684 55.9184C102.522 55.9184 103.202 56.5864 103.202 57.4614C103.202 58.3363 102.522 59.0189 101.684 59.0189ZM101.67 54.9367C100.138 54.9367 98.9785 56.0108 98.9785 57.4614C98.9785 58.905 100.138 60 101.67 60C103.202 60 104.361 58.8979 104.361 57.4614C104.361 56.0177 103.202 54.9367 101.67 54.9367Z" fill="#464747"/>
<path d="M105.5 59.9502H106.631V58.0656H108.893V57.127H106.631V55.9039H109.093L109.1 54.9725H105.5V59.9502Z" fill="#464747"/>
<path d="M114.541 57.2052L113.26 54.9722H112.122L113.976 58.3715V59.9502H115.107V58.343L116.932 54.9722H115.794L114.541 57.2052Z" fill="#464747"/>
<path d="M120.183 59.0189C119.346 59.0189 118.637 58.3363 118.637 57.4614C118.637 56.5864 119.339 55.9184 120.183 55.9184C121.021 55.9184 121.701 56.5864 121.701 57.4614C121.701 58.3363 121.021 59.0189 120.183 59.0189ZM120.169 54.9367C118.637 54.9367 117.478 56.0108 117.478 57.4614C117.478 58.905 118.637 60 120.169 60C121.701 60 122.86 58.8979 122.86 57.4614C122.86 56.0177 121.701 54.9367 120.169 54.9367Z" fill="#464747"/>
<path d="M127.298 57.8666C127.298 58.5849 126.854 59.0189 126.181 59.0189C125.509 59.0189 125.036 58.5849 125.036 57.8666V54.9724H123.905V57.8666C123.905 59.1824 124.793 60 126.181 60C127.563 60 128.429 59.1824 128.429 57.8666V54.9724H127.298V57.8666Z" fill="#464747"/>
<path d="M132.009 57.5893H130.964V55.9039H132.009C132.632 55.9039 132.99 56.1813 132.99 56.7361C132.99 57.3048 132.632 57.5893 132.009 57.5893ZM134.063 56.7004C134.063 55.5983 133.319 54.9725 132.009 54.9725H129.833V59.9502H130.964V58.5279H132.009H132.116L132.911 59.9502H134.192L133.126 58.3076C133.734 58.0234 134.063 57.4683 134.063 56.7004Z" fill="#464747"/>
<path d="M137.952 59.9502H139.084V58.0656H141.345V57.127H139.084V55.9039H141.546L141.553 54.9725H137.952V59.9502Z" fill="#464747"/>
<path d="M143.737 58.0802L144.532 56.1459L145.319 58.0802H143.737ZM143.981 54.9725L141.805 59.9502H142.971L143.365 58.9831H145.684L146.078 59.9502H147.287L145.147 54.9725H143.981Z" fill="#464747"/>
<path d="M149.857 58.7271L148.49 54.9725H147.273L149.242 59.9502H150.408L152.398 54.9725H151.231L149.857 58.7271Z" fill="#464747"/>
<path d="M155.672 59.0189C154.834 59.0189 154.126 58.3363 154.126 57.4614C154.126 56.5864 154.827 55.9184 155.672 55.9184C156.509 55.9184 157.189 56.5864 157.189 57.4614C157.189 58.3363 156.509 59.0189 155.672 59.0189ZM155.657 54.9367C154.126 54.9367 152.966 56.0108 152.966 57.4614C152.966 58.905 154.126 60 155.657 60C157.189 60 158.348 58.8979 158.348 57.4614C158.348 56.0177 157.189 54.9367 155.657 54.9367Z" fill="#464747"/>
<path d="M161.663 57.5893H160.618V55.9039H161.663C162.286 55.9039 162.644 56.1813 162.644 56.7361C162.644 57.3048 162.286 57.5893 161.663 57.5893ZM163.718 56.7004C163.718 55.5983 162.973 54.9725 161.663 54.9725H159.487V59.9502H160.618V58.5279H161.663H161.771L162.565 59.9502H163.846L162.78 58.3076C163.388 58.0234 163.718 57.4683 163.718 56.7004Z" fill="#464747"/>
<path d="M165.064 59.9502H166.195V54.9725H165.064V59.9502Z" fill="#464747"/>
<path d="M167.203 55.9253H168.728V59.9502H169.858V55.9253H171.391V54.9725H167.203V55.9253Z" fill="#464747"/>
<path d="M173.525 57.9164H175.937V56.9849H173.525V55.9039H176.209V54.9725H172.395V59.9502H176.288V59.019H173.525V57.9164Z" fill="#464747"/>
<path d="M178.673 56.2885C178.673 56.018 178.931 55.883 179.311 55.883C179.712 55.883 180.341 56.0822 180.871 56.395L181.307 55.4635C180.807 55.1362 180.105 54.9233 179.404 54.9233C178.244 54.9233 177.464 55.492 177.464 56.395C177.464 58.1585 180.133 57.6109 180.133 58.5495C180.133 58.8554 179.855 59.0261 179.389 59.0261C178.86 59.0261 178.129 58.7347 177.614 58.2795L177.163 59.1967C177.728 59.6733 178.552 59.9863 179.375 59.9863C180.484 59.9863 181.336 59.4598 181.336 58.4856C181.343 56.6937 178.673 57.2057 178.673 56.2885Z" fill="#464747"/>
<path d="M207.757 15.8272L207.756 15.8289C206.458 18.2451 204.336 20.9042 201.449 23.7316C198.951 26.1778 196.518 28.2247 194.198 29.8317C197.688 22.474 201.6 17.119 205.837 13.9052C206.982 13.0519 207.643 12.873 207.995 12.873C208.27 12.873 208.516 12.9218 208.516 13.5142C208.516 14.1235 208.261 14.9017 207.757 15.8272ZM188.767 33.3834C185.214 37.1514 181.119 40.9297 176.601 44.6089C174.486 46.2704 173.407 46.6188 172.874 46.6188C172.645 46.6188 171.95 46.6188 171.95 44.7174C171.95 44.2342 172.224 43.2312 173.531 41.1985C174.603 39.5296 175.863 38.0123 177.268 36.6971C178.971 35.2077 180.809 33.953 182.731 32.9676C184.628 31.9956 186.184 31.5028 187.355 31.5028C188.429 31.5028 189.074 31.5992 189.46 31.7102L188.767 33.3834ZM111.999 26.3989C112.102 26.2117 112.201 26.0288 112.307 25.8396C115.362 20.4173 118.557 16.4007 121.8 13.9038C122.595 13.3013 123.248 12.996 123.738 12.996C123.974 12.996 124.414 12.996 124.414 13.9143C124.414 14.0433 124.387 14.2302 124.312 14.4839C124.312 14.4839 124.26 14.5593 124.161 14.6985C123.474 16.4236 121.022 20.8696 112.774 26.7597C112.259 27.1426 111.737 27.5067 111.21 27.8458C111.455 27.3906 111.706 26.9289 111.965 26.4597C111.976 26.4395 111.987 26.4192 111.999 26.3989ZM210.51 12.2406C209.821 11.1451 208.527 10.5895 206.664 10.5895C201.349 10.5895 195.99 16.9224 190.288 29.9472C189.346 29.3414 188.34 29.0346 187.293 29.0346C186.154 29.0346 184.978 29.1833 183.799 29.4764C182.6 29.7737 181.03 30.4906 178.996 31.6677C177.002 32.8243 175.056 34.2352 173.212 35.8612C171.715 37.1825 170.541 38.5551 169.699 39.9503C168.821 40.9554 167.803 41.9733 166.652 42.994C164.762 44.67 163.275 45.8123 162.232 46.3894C161.019 47.0611 160.464 46.6993 160.158 46.3748C159.976 46.1716 159.758 45.6605 159.758 44.3789C159.758 43.3057 160.144 41.8331 160.906 40.0008C161.352 38.913 162.055 37.4764 162.994 35.7319C163.982 33.8973 164.462 32.4822 164.462 31.406C164.462 30.1941 163.823 29.5266 162.663 29.5266C161.582 29.5266 160.256 30.0922 158.593 31.2668C157.02 32.4999 155.071 34.3219 152.798 36.6817C151.199 38.3434 149.781 39.8818 148.564 41.2767C150.241 36.8803 151.286 34.2375 151.677 33.4088C152.312 32.0618 152.394 31.6144 152.394 31.3752C152.394 31.0293 152.241 30.4218 151.217 30.2392C150.604 30.1313 150.111 30.0891 149.706 30.111C149.225 30.1387 148.818 30.3613 148.528 30.7545C148.275 31.0973 148.106 31.4026 148.01 31.6868C147.923 31.9477 147.847 32.2567 147.78 32.6328C147.723 32.9553 147.604 33.3568 147.427 33.8265C147.236 34.3316 146.721 35.775 145.936 38.0015C145.922 38.0172 145.908 38.0303 145.894 38.0472C144.76 39.6558 143.228 41.3309 141.339 43.026C139.453 44.7191 137.968 45.86 136.926 46.4176C135.711 47.0674 135.155 46.7001 134.848 46.3748C134.579 46.0749 134.448 45.6936 134.448 45.2091C134.448 44.6475 134.468 44.1857 134.507 43.8407C134.869 40.9248 136.096 37.9821 138.169 35.0719C138.361 34.754 138.334 34.4843 138.278 34.3139C138.167 33.9809 137.85 33.711 137.309 33.4892C136.552 33.1807 135.918 33.0309 135.371 33.0309C135.091 33.0309 134.774 33.0309 128.969 39.2371C127.912 40.3678 125.904 42.1776 123.009 44.6089C120.893 46.2701 119.814 46.6188 119.281 46.6188C119.052 46.6188 118.357 46.6188 118.357 44.7174C118.357 44.234 118.631 43.2312 119.938 41.1985C121.01 39.5302 122.271 38.0129 123.676 36.6971C125.377 35.208 127.215 33.9532 129.138 32.9676C131.035 31.9956 132.747 31.5025 134.227 31.5025C135.629 31.5025 136.553 31.8372 136.973 32.497L137.028 32.5838L137.12 32.6303C137.241 32.6913 137.609 32.878 137.864 32.6234C138.007 32.4816 138.037 32.2679 138.037 31.9902C138.037 31.2508 137.588 30.5591 136.703 29.9332C135.857 29.3368 134.837 29.0346 133.67 29.0346C132.551 29.0346 131.385 29.183 130.206 29.4761C129.007 29.774 127.436 30.4906 125.404 31.6677C123.408 32.8249 121.462 34.2358 119.619 35.8612C118.1 37.2019 116.913 38.5959 116.069 40.0131C115.288 40.8797 114.377 41.7941 113.333 42.7526C111.466 44.4662 109.91 45.6577 108.697 46.2997C106.759 47.4073 106.044 46.7615 105.675 46.1793C105.303 45.5886 105.114 44.9208 105.114 44.1946C105.114 43.3915 105.134 42.7789 105.175 42.3206C105.192 42.1148 105.262 41.8003 105.38 41.384C105.38 41.3837 105.38 41.3834 105.38 41.3831C105.474 40.4945 106.34 38.3402 107.415 35.934C107.387 35.956 107.357 35.9794 107.329 36.0013C107.898 34.5679 108.601 33.0015 109.425 31.3184C113.569 29.3009 122.767 23.9742 126.956 14.8121C126.956 14.8121 126.969 14.7476 126.981 14.6352C127.006 14.4679 127.022 14.3073 127.022 14.16C127.022 13.3924 126.905 12.8102 126.662 12.3745C126.512 12.1162 126.327 11.891 126.119 11.6884C126.113 11.6813 126.109 11.6745 126.104 11.6673L126.102 11.6707C125.354 10.9556 124.243 10.5895 122.778 10.5895C120.934 10.5895 119.128 11.4102 117.421 13.0225C116.548 13.8064 115.871 14.4802 115.398 15.0347L113.474 17.4406C111.285 20.3391 108.81 24.6602 106.114 30.2808C106.058 30.3981 106.002 30.5128 105.946 30.6315C105.499 31.5693 105.089 32.4668 104.709 33.3317L104.337 34.1915C102.596 38.2812 101.647 41.5013 101.516 43.7953V44.164C101.516 47.3847 103.272 49.087 106.595 49.087C108.032 49.087 109.482 48.5553 110.903 47.5069C112.128 46.6045 113.494 45.396 114.97 43.9138C115.049 44.656 115.333 45.3615 115.823 46.015C116.39 46.7757 117.089 47.3713 117.903 47.7854C118.717 48.2 119.493 48.4103 120.209 48.4103C121.736 48.4103 123.449 47.6587 125.302 46.1762C127.107 44.7342 128.716 43.2083 130.085 41.6417C130.552 41.1075 130.921 40.6922 131.212 40.3698C130.766 41.8959 130.54 43.3733 130.54 44.7787C130.54 45.4205 130.606 46.0095 130.746 46.5594C131.336 48.2771 132.518 49.148 134.258 49.148C135.982 49.148 137.868 48.3992 139.861 46.9261C140.874 46.2016 142.339 44.833 144.209 42.8688C143.976 43.5222 143.748 44.1598 143.526 44.7764L143.037 46.1354C142.621 47.2934 142.382 47.956 142.32 48.125C142.222 48.3929 142.174 48.6058 142.174 48.775C142.174 49.1449 142.487 49.3327 143.106 49.3327C143.407 49.3327 144.014 49.2022 146.091 48.1689C146.257 48.0656 146.645 47.8233 150.431 42.8202C152.901 39.5539 154.792 37.3052 156.039 36.1457C158.37 34.1387 159.251 33.8388 159.568 33.8388C159.642 33.8388 159.679 33.8511 159.677 33.8465C159.677 33.8465 159.687 33.8673 159.687 33.927C159.687 34.0123 159.631 34.391 158.9 35.6809C158.339 36.6725 157.677 38.0714 156.93 39.8421C156.469 40.9645 156.15 41.9704 155.981 42.8317C155.813 43.6883 155.727 44.5915 155.727 45.5167C155.727 46.5155 156.054 47.3579 156.699 48.0202C157.345 48.684 158.431 49.0427 159.94 49.087C161.457 49.087 163.008 48.5362 164.551 47.4504C165.84 46.5429 167.188 45.3703 168.568 43.9609C168.655 44.6854 168.936 45.3752 169.415 46.0152C169.983 46.7757 170.682 47.3713 171.495 47.7854C172.309 48.2003 173.086 48.4106 173.802 48.4106C176.508 48.4106 180.76 45.1297 186.774 38.3939C186.226 39.9075 185.638 41.6574 185.016 43.6221C184.348 45.7379 184.009 48.0713 184.009 50.558C184.009 53.2964 185.114 54.8685 187.303 55.2315C187.617 55.2755 188.211 55.2969 189.119 55.2969C190.079 55.2969 190.931 55.0472 191.653 54.5549L191.706 54.5104C192.001 54.2162 192.322 53.8546 192.661 53.4357L192.711 53.3529C192.804 53.1446 193.087 52.5108 192.64 52.216C192.391 52.0502 192.062 52.0745 191.665 52.2891C191.371 52.4455 191.118 52.6178 190.912 52.7996C190.74 52.9511 190.484 53.1361 190.153 53.3495C189.886 53.5207 189.563 53.5644 189.165 53.4819C188.79 53.4043 188.512 53.1609 188.315 52.738L188.297 52.7026C187.839 51.9452 187.607 50.8928 187.607 49.5744C187.607 48.22 187.978 46.1211 188.709 43.3356C189.438 40.559 190.461 37.6456 191.751 34.6752C192.113 34.3662 193.424 33.2969 197.431 30.0982C200.894 27.3332 203.591 24.9752 205.447 23.0901C207.317 21.1921 208.721 19.4177 209.622 17.8159C210.549 16.1665 211 14.8298 211 13.7297C211 13.2905 210.842 12.8068 210.51 12.2406Z" fill="#464747"/>
<path d="M4.01364 24.41C4.47955 22.2743 6.00107 20.4548 8.53628 19.002C11.226 17.4607 14.4968 16.4202 18.2778 15.906L18.3649 15.8892C19.3064 15.6643 20.699 15.5502 22.504 15.5502C24.361 15.5502 27.1706 15.7142 30.855 16.0379C34.5949 16.3669 37.1468 16.5338 38.4397 16.5338H38.7775C38.1375 17.8619 37.8129 19.4808 37.8129 21.3526C37.8129 23.0942 38.0772 24.0676 38.6945 24.5924C39.2215 25.1999 39.7897 25.3286 40.176 25.3286C40.3573 25.3286 40.5386 25.3007 40.7129 25.2461C41.3414 25.0521 41.5827 24.6169 41.6706 24.3749C41.8415 23.9052 41.7496 23.3927 41.3957 22.8496C41.2466 22.6233 41.1708 22.3057 41.1708 21.9059C41.1708 20.8363 42.0865 19.3804 43.822 17.6921C44.1931 17.3232 44.713 16.8934 45.3677 16.4154C46.1202 15.8655 46.6269 15.4586 46.9162 15.1712C47.3746 14.7157 47.6073 14.2095 47.6073 13.667C47.6073 13.0923 47.3333 12.5675 46.793 12.1069C46.3024 11.6883 45.6678 11.4759 44.9072 11.4759C43.6382 11.4759 42.343 12.1303 41.0556 13.4216C38.965 13.3049 35.9073 12.9245 31.9609 12.2901C27.5899 11.5869 23.8457 11.2302 20.8331 11.2302C15.2776 11.2302 10.4872 12.243 6.59624 14.2395C3.16857 15.9862 1.08176 18.5134 0.392948 21.7541C0.34268 22.0015 0.316254 22.3223 0.310509 22.7594C0.104556 23.3701 0 24.0858 0 24.888C0 25.9239 0.561559 27.0794 1.7157 28.4195C2.81929 29.7048 4.20092 30.596 5.8362 31.072C6.08437 31.135 6.33054 31.167 6.56809 31.167C6.97942 31.167 7.36404 31.0169 7.7116 30.721C8.01493 30.4621 8.17981 30.1094 8.17607 29.727C8.17263 29.4351 8.06462 29.0025 7.56798 28.5984C7.29682 28.3781 6.82431 28.0667 6.08093 27.6187C5.45847 27.2446 4.99974 26.9304 4.71624 26.6833C4.50569 26.5009 4.31726 26.231 4.15583 25.8797C3.9381 25.4097 3.91454 25.1585 3.91454 25.0724C3.91454 24.785 3.95131 24.6161 3.98923 24.5016L4.01364 24.41Z" fill="#53B9A8"/>
<path d="M32.751 33.4478C33.5786 33.1741 35.1193 32.6647 34.9053 31.3817L34.8783 31.2196L34.8039 31.0727C34.6646 30.7964 34.432 30.5673 34.0893 30.3704C33.817 30.2174 33.5099 30.1204 33.1735 30.0816C32.9406 30.0565 32.5003 30.0448 31.7873 30.0448C31.0666 30.0448 28.3404 30.3418 23.1913 30.9816C22.5091 31.0949 21.8306 31.1957 21.1651 31.2836C26.5848 22.4836 29.4397 21.145 30.647 21.1432C30.6475 21.1432 30.7122 21.1575 30.8452 21.2517L32.2932 22.2756L32.5566 20.5297C32.6683 19.7912 32.5836 18.4046 30.7607 17.4183C29.6379 16.8128 28.6782 16.5183 27.8265 16.5183C26.016 16.5183 24.1501 17.5316 22.1222 19.6159C20.1629 21.6298 19.0679 23.2924 18.7747 24.6987L18.6879 25.1139L18.899 25.4606C18.8993 25.4615 18.9378 25.5542 18.9384 25.7948C18.9367 25.8113 18.8861 26.2205 18.0129 27.8537C17.4984 28.8165 16.9202 29.8798 16.2909 31.021C15.8129 30.6224 15.2413 30.4138 14.6134 30.4138C13.9711 30.4138 13.1599 30.6489 12.1336 31.1337C10.8582 31.737 10.2114 32.5215 10.2114 33.4652C10.2114 34.2677 10.5207 34.9631 11.1061 35.4762C11.6599 35.9625 12.3401 36.2087 13.1283 36.2087C13.2478 36.2087 13.3759 36.2059 13.5141 36.2005C10.3349 42.4655 8.78809 46.5014 8.78809 48.5287C8.78809 48.743 8.80159 48.9533 8.82744 49.1514C8.95038 50.1539 10.1054 50.4141 10.6612 50.5394C11.3873 50.7015 11.9311 50.7803 12.3238 50.7803C12.8259 50.7803 13.4049 50.5945 14.0949 50.2118C14.5634 49.9507 15.3071 49.3397 16.9139 46.9161L17.4737 46.0814C18.2605 45.2861 18.5822 44.7287 18.5822 44.1634C18.5822 43.1652 17.9204 42.7106 17.3057 42.7106C16.6117 42.7106 15.8939 43.121 14.2816 45.215C14.1414 45.3922 13.9964 45.5403 13.845 45.661C14.1256 44.5101 15.1795 41.8616 18.544 35.7724C25.6728 34.9999 30.3204 34.2394 32.751 33.4478Z" fill="#53B9A8"/>
<path d="M89.8099 44.8428L89.7979 44.8682C89.8473 44.8171 89.8924 44.7674 89.9406 44.7169C89.8975 44.7597 89.8536 44.8005 89.8099 44.8428Z" fill="#53B9A8"/>
<path d="M54.0747 32.3187H54.066C53.4605 32.3187 53.1569 32.3187 47.1403 38.7521C46.1014 39.8625 44.1194 41.6475 41.2593 44.05C39.0659 45.7728 38.1916 45.9066 37.9782 45.9089C37.9761 45.9075 37.7667 45.7477 37.7667 44.7155C37.7667 44.5157 37.8727 43.6993 39.2354 41.5793C40.2755 39.9604 41.4929 38.4939 42.8429 37.2288C44.5006 35.7783 46.2895 34.5563 48.1606 33.5972C49.9553 32.6777 51.557 32.2114 52.9211 32.2114C53.368 32.2114 53.7541 32.2477 54.0747 32.3187ZM146.887 3.57491C168.788 3.57491 183.607 13.7934 187.627 16.9253L187.882 16.6103C188.281 16.9373 188.681 17.2524 189.079 17.5911C189.079 17.5911 188.67 17.2238 187.882 16.61L188.137 16.2953C174.945 5.48175 160.342 -0.00104763 144.733 -0.00104763C134.587 -0.00104763 124.027 2.31301 113.346 6.87721C105.655 10.163 98.0851 14.5165 90.846 19.8159C81.8217 25.8103 76.4405 32.3595 76.1989 32.6566C75.4544 33.4491 74.6093 34.3628 73.691 35.3685C72.8353 36.2788 71.3621 38.1006 69.2077 40.9138C69.4019 40.2763 69.6251 39.5817 69.8759 38.8332C69.9411 38.6799 70.1496 38.1648 71.0797 35.7943C72.154 33.0524 72.2991 32.2074 72.2991 31.7423C72.2991 30.9824 71.9897 30.2458 71.3796 29.5538C70.7049 28.7876 69.4508 28.446 67.2953 28.446H67.2918L67.2166 28.4494C65.128 28.6269 64.4654 28.8638 64.0586 29.2011L64.0003 29.255C63.7036 29.5495 63.3095 30.0132 63.3095 30.6359C63.3095 31.0175 63.4652 31.359 63.7473 31.5962C63.8788 31.7072 64.1686 31.8941 64.6325 31.8941C64.767 31.8941 64.9066 31.8778 65.0485 31.8456C65.2355 31.8025 65.4136 31.7808 65.5764 31.7808C66.0736 31.7808 66.2006 32.6812 66.2164 33.4674C65.6928 34.8902 64.6202 36.6994 63.0271 38.8466L62.9315 39.0012C62.9212 39.0215 62.9125 39.0412 62.9054 39.0597C61.9649 40.1892 60.8378 41.3453 59.5544 42.497C57.7117 44.1513 56.2741 45.2594 55.2814 45.7905C54.6905 46.1066 54.3185 46.156 54.0767 45.9009C53.9273 45.7342 53.8578 45.5139 53.8578 45.2077C53.8578 44.6812 53.8765 44.2369 53.9112 43.9264C54.2585 41.1278 55.4428 38.2944 57.4403 35.4918L57.4765 35.4364C57.8082 34.8888 57.7551 34.4019 57.6517 34.0892C57.5371 33.7447 57.3127 33.4528 56.9726 33.2068C57.0045 33.1811 57.0356 33.1534 57.0654 33.1238C57.4018 32.7902 57.4472 32.3627 57.4472 31.9886C57.4472 31.0058 56.8968 30.1191 55.8116 29.3526C54.843 28.6692 53.6831 28.3224 52.3641 28.3224C51.1876 28.3224 49.9636 28.4782 48.7268 28.7853C47.4632 29.0992 45.8314 29.8406 43.7379 31.0526C41.7025 32.2326 39.718 33.6708 37.8388 35.328C35.9005 37.0382 34.4718 38.836 33.596 40.6647C33.1499 41.5504 32.9238 42.4996 32.9238 43.4858C32.9238 44.5408 33.2668 45.5339 33.9427 46.4374C34.5772 47.2867 35.3605 47.9527 36.2711 48.4161C37.1871 48.883 38.0729 49.1196 38.9042 49.1196C40.5975 49.1196 42.462 48.3151 44.446 46.7285C45.996 45.4891 47.4057 44.1887 48.6478 42.8517C48.5622 43.5072 48.5191 44.151 48.5191 44.7771C48.5191 45.4768 48.5926 46.1241 48.7414 46.7148L48.7633 46.7878C49.4443 48.7674 50.9319 49.8573 52.9524 49.8573C54.8338 49.8573 56.8615 49.0634 58.9742 47.501C60.0754 46.7128 61.5941 45.2905 63.6177 43.1528C63.8159 42.9433 64.0035 42.7419 64.1816 42.5478C63.2141 45.9443 63.0464 46.636 63.0128 46.8557C62.9625 47.1791 62.9381 47.5346 62.9381 47.9436C62.9381 48.4958 63.1409 49.1005 63.5583 49.7931C64.0629 50.6275 64.8896 51.0869 65.8861 51.0869C67.2255 51.0869 67.7928 50.4055 67.8899 49.7234C68.8139 48.5291 78.5627 35.9706 84.6516 29.9228C105.36 12.4391 126.298 3.57491 146.887 3.57491Z" fill="#53B9A8"/>
<path d="M85.4046 46.3675C85.0648 45.8245 84.8818 45.3585 84.8606 44.9823C84.8333 44.4944 84.8471 44.0489 84.9022 43.6525C85.2093 41.1798 86.4444 38.6246 88.5729 36.058C91.2526 32.8282 92.7638 32.2917 93.4259 32.2594C93.4942 32.256 93.5454 32.2563 93.5824 32.2583C93.5827 32.2634 93.583 32.2691 93.5833 32.2746C93.5976 32.5274 93.6367 33.2226 94.077 33.7165C93.8906 34.2211 93.9311 34.769 94.1983 35.3174C94.2614 35.4484 94.3189 35.6256 94.3689 35.8451L94.4378 36.1439C94.4556 36.26 94.4731 36.4144 94.48 36.6053L94.4887 36.6978C94.4935 36.7463 94.4981 36.7951 94.5013 36.8476C94.5102 37.008 94.499 37.2942 94.3893 37.7679C94.1914 38.9063 93.5643 40.7577 91.7021 43.1146C91.3752 43.5287 91.0079 43.959 90.6112 44.3928L90.4974 44.518L90.49 44.5138C90.0844 44.9227 89.7173 45.2549 89.368 45.5291C88.3471 46.3316 87.4182 46.7585 86.6064 46.7981C85.701 46.8424 85.5008 46.5216 85.4046 46.3675ZM99.4953 37.1638C99.5338 36.3593 99.4873 35.8656 99.4873 35.8656C99.4821 35.7723 99.4738 35.6833 99.466 35.5934C99.4068 35.0264 99.3204 34.6197 99.3204 34.6197C100.058 35.0478 104.796 33.1272 104.796 33.1272L104.708 33.3316C105.088 32.4669 105.498 31.5691 105.945 30.6314C106.001 30.5127 106.057 30.3983 106.114 30.2807C105.827 30.3263 105.587 30.4687 105.483 30.5309C105.25 30.6685 104.634 30.995 103.046 31.7569C100.534 32.8265 99.231 33.0365 98.5606 32.9974C98.2176 32.6007 97.781 32.3348 97.2505 32.2015C97.1327 32.0423 97.0431 31.8748 97.0012 31.7158C97 31.6813 97.0029 31.6505 97.0012 31.6156C96.9977 31.5566 96.9903 31.4995 96.9845 31.4418C97.1083 31.3354 97.1347 31.3 96.9937 31.3851C96.9888 31.4019 96.9871 31.4199 96.9842 31.4373C96.8271 29.9203 95.7818 28.8393 94.0052 28.3827C93.4506 28.2566 92.8683 28.2075 92.2746 28.2363C90.0597 28.3442 87.7945 29.4351 85.5425 31.4781C84.1672 32.7174 82.9757 34.1574 82.0042 35.7532C80.2776 38.5087 79.4765 41.2334 79.6236 43.852C79.7689 46.4397 80.8254 48.2472 82.7637 49.2238C83.7834 49.8233 85.0151 50.0924 86.4246 50.0237C86.6616 50.0123 86.8965 49.9923 87.1292 49.9655L87.1289 49.9657C87.1327 49.9652 87.1364 49.9643 87.1401 49.9637C87.6336 49.9061 88.1162 49.8108 88.5893 49.6838C98.0128 47.5347 99.3511 40.1747 99.4953 37.1644C99.4953 37.1644 99.4953 37.1641 99.4953 37.1638Z" fill="#53B9A8"/>
</svg>
