<svg width="17" height="16" viewBox="0 0 17 16" fill="none" xmlns="http://www.w3.org/2000/svg">
<g id="Social Icons" clip-path="url(#clip0_56_25584)">
<path id="Vector" d="M15.3189 0H1.68111C1.36786 0 1.06744 0.124438 0.84594 0.34594C0.624438 0.567441 0.5 0.867861 0.5 1.18111V14.8189C0.5 15.1321 0.624438 15.4326 0.84594 15.6541C1.06744 15.8756 1.36786 16 1.68111 16H15.3189C15.6321 16 15.9326 15.8756 16.1541 15.6541C16.3756 15.4326 16.5 15.1321 16.5 14.8189V1.18111C16.5 0.867861 16.3756 0.567441 16.1541 0.34594C15.9326 0.124438 15.6321 0 15.3189 0ZM5.26889 13.63H2.86333V5.98889H5.26889V13.63ZM4.06444 4.93C3.79158 4.92846 3.52528 4.84613 3.29916 4.69339C3.07304 4.54065 2.89723 4.32435 2.79392 4.07179C2.69061 3.81923 2.66443 3.54173 2.71869 3.2743C2.77294 3.00688 2.9052 2.76152 3.09877 2.56919C3.29234 2.37686 3.53854 2.24618 3.80631 2.19364C4.07408 2.1411 4.35141 2.16906 4.6033 2.27399C4.85519 2.37892 5.07036 2.55611 5.22164 2.78321C5.37293 3.01031 5.45355 3.27713 5.45333 3.55C5.45591 3.73269 5.42167 3.91403 5.35267 4.0832C5.28368 4.25238 5.18132 4.40593 5.05171 4.53471C4.92211 4.66349 4.7679 4.76486 4.59828 4.83277C4.42867 4.90068 4.24711 4.93375 4.06444 4.93ZM14.1356 13.6367H11.7311V9.46222C11.7311 8.23111 11.2078 7.85111 10.5322 7.85111C9.81889 7.85111 9.11889 8.38889 9.11889 9.49333V13.6367H6.71333V5.99445H9.02667V7.05333H9.05778C9.29 6.58333 10.1033 5.78 11.3444 5.78C12.6867 5.78 14.1367 6.57667 14.1367 8.91L14.1356 13.6367Z" fill="#0A66C2"/>
</g>
<defs>
<clipPath id="clip0_56_25584">
<rect width="16" height="16" fill="white" transform="translate(0.5)"/>
</clipPath>
</defs>
</svg>
